<?xml version="1.0" encoding="UTF-8"?>
<mxfile host="app.diagrams.net" modified="2024-01-01T00:00:00.000Z" agent="5.0" etag="xxx" version="22.1.16" type="device">
  <diagram name="单Agent工作流程" id="single-agent-workflow">
    <mxGraphModel dx="1422" dy="794" grid="1" gridSize="10" guides="1" tooltips="1" connect="1" arrows="1" fold="1" page="1" pageScale="1" pageWidth="1400" pageHeight="1000" math="0" shadow="0">
      <root>
        <mxCell id="0" />
        <mxCell id="1" parent="0" />
        
        <!-- 主标题 -->
        <mxCell id="title" value="单Agent工作流程详细架构" style="text;html=1;strokeColor=none;fillColor=none;align=center;verticalAlign=middle;whiteSpace=wrap;rounded=0;fontSize=24;fontStyle=1;" vertex="1" parent="1">
          <mxGeometry x="400" y="20" width="600" height="40" as="geometry" />
        </mxCell>
        
        <!-- 用户输入 -->
        <mxCell id="user-input" value="用户输入&#xa;(User Input)" style="rounded=1;whiteSpace=wrap;html=1;fillColor=#e1d5e7;strokeColor=#9673a6;fontSize=14;fontStyle=1;" vertex="1" parent="1">
          <mxGeometry x="50" y="100" width="150" height="60" as="geometry" />
        </mxCell>
        
        <!-- 输入处理模块 -->
        <mxCell id="input-processor" value="输入处理模块&#xa;(Input Processor)" style="rounded=1;whiteSpace=wrap;html=1;fillColor=#d5e8d4;strokeColor=#82b366;fontSize=12;" vertex="1" parent="1">
          <mxGeometry x="250" y="100" width="150" height="60" as="geometry" />
        </mxCell>
        
        <!-- 感知阶段 -->
        <mxCell id="perception" value="感知阶段&#xa;(Perception)" style="rounded=1;whiteSpace=wrap;html=1;fillColor=#dae8fc;strokeColor=#6c8ebf;fontSize=14;fontStyle=1;" vertex="1" parent="1">
          <mxGeometry x="450" y="100" width="150" height="60" as="geometry" />
        </mxCell>
        
        <!-- 决策阶段 -->
        <mxCell id="decision" value="决策阶段&#xa;(Decision)" style="rounded=1;whiteSpace=wrap;html=1;fillColor=#fff2cc;strokeColor=#d6b656;fontSize=14;fontStyle=1;" vertex="1" parent="1">
          <mxGeometry x="650" y="100" width="150" height="60" as="geometry" />
        </mxCell>
        
        <!-- 执行阶段 -->
        <mxCell id="action" value="执行阶段&#xa;(Action)" style="rounded=1;whiteSpace=wrap;html=1;fillColor=#f8cecc;strokeColor=#b85450;fontSize=14;fontStyle=1;" vertex="1" parent="1">
          <mxGeometry x="850" y="100" width="150" height="60" as="geometry" />
        </mxCell>
        
        <!-- 输出生成 -->
        <mxCell id="output-generator" value="输出生成&#xa;(Output Generator)" style="rounded=1;whiteSpace=wrap;html=1;fillColor=#e1d5e7;strokeColor=#9673a6;fontSize=12;" vertex="1" parent="1">
          <mxGeometry x="1050" y="100" width="150" height="60" as="geometry" />
        </mxCell>
        
        <!-- 用户输出 -->
        <mxCell id="user-output" value="用户输出&#xa;(User Output)" style="rounded=1;whiteSpace=wrap;html=1;fillColor=#e1d5e7;strokeColor=#9673a6;fontSize=14;fontStyle=1;" vertex="1" parent="1">
          <mxGeometry x="1250" y="100" width="150" height="60" as="geometry" />
        </mxCell>
        
        <!-- 箭头连接 -->
        <mxCell id="arrow1" value="" style="endArrow=classic;html=1;rounded=0;exitX=1;exitY=0.5;exitDx=0;exitDy=0;entryX=0;entryY=0.5;entryDx=0;entryDy=0;strokeWidth=2;" edge="1" parent="1" source="user-input" target="input-processor">
          <mxGeometry width="50" height="50" relative="1" as="geometry">
            <mxPoint x="290" y="290" as="sourcePoint" />
            <mxPoint x="340" y="240" as="targetPoint" />
          </mxGeometry>
        </mxCell>
        
        <mxCell id="arrow2" value="" style="endArrow=classic;html=1;rounded=0;exitX=1;exitY=0.5;exitDx=0;exitDy=0;entryX=0;entryY=0.5;entryDx=0;entryDy=0;strokeWidth=2;" edge="1" parent="1" source="input-processor" target="perception">
          <mxGeometry width="50" height="50" relative="1" as="geometry">
            <mxPoint x="290" y="290" as="sourcePoint" />
            <mxPoint x="340" y="240" as="targetPoint" />
          </mxGeometry>
        </mxCell>
        
        <mxCell id="arrow3" value="" style="endArrow=classic;html=1;rounded=0;exitX=1;exitY=0.5;exitDx=0;exitDy=0;entryX=0;entryY=0.5;entryDx=0;entryDy=0;strokeWidth=2;" edge="1" parent="1" source="perception" target="decision">
          <mxGeometry width="50" height="50" relative="1" as="geometry">
            <mxPoint x="290" y="290" as="sourcePoint" />
            <mxPoint x="340" y="240" as="targetPoint" />
          </mxGeometry>
        </mxCell>
        
        <mxCell id="arrow4" value="" style="endArrow=classic;html=1;rounded=0;exitX=1;exitY=0.5;exitDx=0;exitDy=0;entryX=0;entryY=0.5;entryDx=0;entryDy=0;strokeWidth=2;" edge="1" parent="1" source="decision" target="action">
          <mxGeometry width="50" height="50" relative="1" as="geometry">
            <mxPoint x="290" y="290" as="sourcePoint" />
            <mxPoint x="340" y="240" as="targetPoint" />
          </mxGeometry>
        </mxCell>
        
        <mxCell id="arrow5" value="" style="endArrow=classic;html=1;rounded=0;exitX=1;exitY=0.5;exitDx=0;exitDy=0;entryX=0;entryY=0.5;entryDx=0;entryDy=0;strokeWidth=2;" edge="1" parent="1" source="action" target="output-generator">
          <mxGeometry width="50" height="50" relative="1" as="geometry">
            <mxPoint x="290" y="290" as="sourcePoint" />
            <mxPoint x="340" y="240" as="targetPoint" />
          </mxGeometry>
        </mxCell>
        
        <mxCell id="arrow6" value="" style="endArrow=classic;html=1;rounded=0;exitX=1;exitY=0.5;exitDx=0;exitDy=0;entryX=0;entryY=0.5;entryDx=0;entryDy=0;strokeWidth=2;" edge="1" parent="1" source="output-generator" target="user-output">
          <mxGeometry width="50" height="50" relative="1" as="geometry">
            <mxPoint x="290" y="290" as="sourcePoint" />
            <mxPoint x="340" y="240" as="targetPoint" />
          </mxGeometry>
        </mxCell>
        
        <!-- 核心组件 -->
        <mxCell id="core-components-title" value="核心组件" style="text;html=1;strokeColor=none;fillColor=none;align=center;verticalAlign=middle;whiteSpace=wrap;rounded=0;fontSize=18;fontStyle=1;" vertex="1" parent="1">
          <mxGeometry x="50" y="200" width="200" height="30" as="geometry" />
        </mxCell>
        
        <!-- LLM -->
        <mxCell id="llm" value="LLM&#xa;(大语言模型)" style="rounded=1;whiteSpace=wrap;html=1;fillColor=#d5e8d4;strokeColor=#82b366;fontSize=14;fontStyle=1;" vertex="1" parent="1">
          <mxGeometry x="50" y="250" width="150" height="80" as="geometry" />
        </mxCell>
        
        <!-- 知识库 -->
        <mxCell id="knowledge-base" value="知识库&#xa;(Knowledge Base)" style="rounded=1;whiteSpace=wrap;html=1;fillColor=#dae8fc;strokeColor=#6c8ebf;fontSize=14;fontStyle=1;" vertex="1" parent="1">
          <mxGeometry x="250" y="250" width="150" height="80" as="geometry" />
        </mxCell>
        
        <!-- MCP -->
        <mxCell id="mcp" value="MCP&#xa;(Model Context Protocol)" style="rounded=1;whiteSpace=wrap;html=1;fillColor=#fff2cc;strokeColor=#d6b656;fontSize=14;fontStyle=1;" vertex="1" parent="1">
          <mxGeometry x="450" y="250" width="150" height="80" as="geometry" />
        </mxCell>
        
        <!-- 工具管理 -->
        <mxCell id="tool-manager" value="工具管理&#xa;(Tool Manager)" style="rounded=1;whiteSpace=wrap;html=1;fillColor=#f8cecc;strokeColor=#b85450;fontSize=14;fontStyle=1;" vertex="1" parent="1">
          <mxGeometry x="650" y="250" width="150" height="80" as="geometry" />
        </mxCell>
        
        <!-- 状态管理 -->
        <mxCell id="state-manager" value="状态管理&#xa;(State Manager)" style="rounded=1;whiteSpace=wrap;html=1;fillColor=#e1d5e7;strokeColor=#9673a6;fontSize=14;fontStyle=1;" vertex="1" parent="1">
          <mxGeometry x="850" y="250" width="150" height="80" as="geometry" />
        </mxCell>
        
        <!-- 监控系统 -->
        <mxCell id="monitoring" value="监控系统&#xa;(Monitoring)" style="rounded=1;whiteSpace=wrap;html=1;fillColor=#d5e8d4;strokeColor=#82b366;fontSize=14;fontStyle=1;" vertex="1" parent="1">
          <mxGeometry x="1050" y="250" width="150" height="80" as="geometry" />
        </mxCell>
        
        <!-- 组件功能说明 -->
        <mxCell id="llm-details" value="• 自然语言理解&#xa;• 推理和决策&#xa;• 文本生成&#xa;• 上下文处理" style="text;html=1;strokeColor=none;fillColor=none;align=left;verticalAlign=top;whiteSpace=wrap;rounded=0;fontSize=10;" vertex="1" parent="1">
          <mxGeometry x="50" y="340" width="150" height="80" as="geometry" />
        </mxCell>
        
        <mxCell id="kb-details" value="• 领域知识存储&#xa;• 事实检索&#xa;• 规则管理&#xa;• 经验积累" style="text;html=1;strokeColor=none;fillColor=none;align=left;verticalAlign=top;whiteSpace=wrap;rounded=0;fontSize=10;" vertex="1" parent="1">
          <mxGeometry x="250" y="340" width="150" height="80" as="geometry" />
        </mxCell>
        
        <mxCell id="mcp-details" value="• 外部工具集成&#xa;• 协议标准化&#xa;• 资源访问&#xa;• 安全控制" style="text;html=1;strokeColor=none;fillColor=none;align=left;verticalAlign=top;whiteSpace=wrap;rounded=0;fontSize=10;" vertex="1" parent="1">
          <mxGeometry x="450" y="340" width="150" height="80" as="geometry" />
        </mxCell>
        
        <mxCell id="tool-details" value="• 工具注册管理&#xa;• 能力匹配&#xa;• 调用优化&#xa;• 错误处理" style="text;html=1;strokeColor=none;fillColor=none;align=left;verticalAlign=top;whiteSpace=wrap;rounded=0;fontSize=10;" vertex="1" parent="1">
          <mxGeometry x="650" y="340" width="150" height="80" as="geometry" />
        </mxCell>
        
        <mxCell id="state-details" value="• 会话状态维护&#xa;• 上下文管理&#xa;• 历史记录&#xa;• 状态同步" style="text;html=1;strokeColor=none;fillColor=none;align=left;verticalAlign=top;whiteSpace=wrap;rounded=0;fontSize=10;" vertex="1" parent="1">
          <mxGeometry x="850" y="340" width="150" height="80" as="geometry" />
        </mxCell>
        
        <mxCell id="monitoring-details" value="• 性能监控&#xa;• 错误追踪&#xa;• 资源使用&#xa;• 告警通知" style="text;html=1;strokeColor=none;fillColor=none;align=left;verticalAlign=top;whiteSpace=wrap;rounded=0;fontSize=10;" vertex="1" parent="1">
          <mxGeometry x="1050" y="340" width="150" height="80" as="geometry" />
        </mxCell>
        
        <!-- 连接线到主流程 -->
        <mxCell id="llm-connection" value="" style="endArrow=classic;html=1;rounded=0;exitX=0.5;exitY=0;exitDx=0;exitDy=0;entryX=0.5;entryY=1;entryDx=0;entryDy=0;strokeWidth=1;strokeColor=#82b366;dashed=1;" edge="1" parent="1" source="llm" target="decision">
          <mxGeometry width="50" height="50" relative="1" as="geometry">
            <mxPoint x="290" y="290" as="sourcePoint" />
            <mxPoint x="340" y="240" as="targetPoint" />
          </mxGeometry>
        </mxCell>
        
        <mxCell id="kb-connection" value="" style="endArrow=classic;html=1;rounded=0;exitX=0.5;exitY=0;exitDx=0;exitDy=0;entryX=0.5;entryY=1;entryDx=0;entryDy=0;strokeWidth=1;strokeColor=#6c8ebf;dashed=1;" edge="1" parent="1" source="knowledge-base" target="perception">
          <mxGeometry width="50" height="50" relative="1" as="geometry">
            <mxPoint x="290" y="290" as="sourcePoint" />
            <mxPoint x="340" y="240" as="targetPoint" />
          </mxGeometry>
        </mxCell>
        
        <mxCell id="mcp-connection" value="" style="endArrow=classic;html=1;rounded=0;exitX=0.5;exitY=0;exitDx=0;exitDy=0;entryX=0.5;entryY=1;entryDx=0;entryDy=0;strokeWidth=1;strokeColor=#d6b656;dashed=1;" edge="1" parent="1" source="mcp" target="action">
          <mxGeometry width="50" height="50" relative="1" as="geometry">
            <mxPoint x="290" y="290" as="sourcePoint" />
            <mxPoint x="340" y="240" as="targetPoint" />
          </mxGeometry>
        </mxCell>
        
        <mxCell id="tool-connection" value="" style="endArrow=classic;html=1;rounded=0;exitX=0.5;exitY=0;exitDx=0;exitDy=0;entryX=0.5;entryY=1;entryDx=0;entryDy=0;strokeWidth=1;strokeColor=#b85450;dashed=1;" edge="1" parent="1" source="tool-manager" target="action">
          <mxGeometry width="50" height="50" relative="1" as="geometry">
            <mxPoint x="290" y="290" as="sourcePoint" />
            <mxPoint x="340" y="240" as="targetPoint" />
          </mxGeometry>
        </mxCell>
        
        <mxCell id="state-connection" value="" style="endArrow=classic;html=1;rounded=0;exitX=0.5;exitY=0;exitDx=0;exitDy=0;entryX=0.5;entryY=1;entryDx=0;entryDy=0;strokeWidth=1;strokeColor=#9673a6;dashed=1;" edge="1" parent="1" source="state-manager" target="perception">
          <mxGeometry width="50" height="50" relative="1" as="geometry">
            <mxPoint x="290" y="290" as="sourcePoint" />
            <mxPoint x="340" y="240" as="targetPoint" />
          </mxGeometry>
        </mxCell>
        
        <!-- 详细流程 -->
        <mxCell id="detailed-flow-title" value="详细处理流程" style="text;html=1;strokeColor=none;fillColor=none;align=center;verticalAlign=middle;whiteSpace=wrap;rounded=0;fontSize=18;fontStyle=1;" vertex="1" parent="1">
          <mxGeometry x="50" y="450" width="200" height="30" as="geometry" />
        </mxCell>
        
        <!-- 步骤1 -->
        <mxCell id="step1" value="1. 输入解析&#xa;(Input Parsing)" style="rounded=1;whiteSpace=wrap;html=1;fillColor=#e1d5e7;strokeColor=#9673a6;fontSize=12;" vertex="1" parent="1">
          <mxGeometry x="50" y="500" width="120" height="60" as="geometry" />
        </mxCell>
        
        <!-- 步骤2 -->
        <mxCell id="step2" value="2. 意图识别&#xa;(Intent Recognition)" style="rounded=1;whiteSpace=wrap;html=1;fillColor=#d5e8d4;strokeColor=#82b366;fontSize=12;" vertex="1" parent="1">
          <mxGeometry x="200" y="500" width="120" height="60" as="geometry" />
        </mxCell>
        
        <!-- 步骤3 -->
        <mxCell id="step3" value="3. 知识检索&#xa;(Knowledge Retrieval)" style="rounded=1;whiteSpace=wrap;html=1;fillColor=#dae8fc;strokeColor=#6c8ebf;fontSize=12;" vertex="1" parent="1">
          <mxGeometry x="350" y="500" width="120" height="60" as="geometry" />
        </mxCell>
        
        <!-- 步骤4 -->
        <mxCell id="step4" value="4. 工具选择&#xa;(Tool Selection)" style="rounded=1;whiteSpace=wrap;html=1;fillColor=#fff2cc;strokeColor=#d6b656;fontSize=12;" vertex="1" parent="1">
          <mxGeometry x="500" y="500" width="120" height="60" as="geometry" />
        </mxCell>
        
        <!-- 步骤5 -->
        <mxCell id="step5" value="5. 执行调用&#xa;(Execution)" style="rounded=1;whiteSpace=wrap;html=1;fillColor=#f8cecc;strokeColor=#b85450;fontSize=12;" vertex="1" parent="1">
          <mxGeometry x="650" y="500" width="120" height="60" as="geometry" />
        </mxCell>
        
        <!-- 步骤6 -->
        <mxCell id="step6" value="6. 结果验证&#xa;(Result Validation)" style="rounded=1;whiteSpace=wrap;html=1;fillColor=#e1d5e7;strokeColor=#9673a6;fontSize=12;" vertex="1" parent="1">
          <mxGeometry x="800" y="500" width="120" height="60" as="geometry" />
        </mxCell>
        
        <!-- 步骤7 -->
        <mxCell id="step7" value="7. 响应生成&#xa;(Response Generation)" style="rounded=1;whiteSpace=wrap;html=1;fillColor=#d5e8d4;strokeColor=#82b366;fontSize=12;" vertex="1" parent="1">
          <mxGeometry x="950" y="500" width="120" height="60" as="geometry" />
        </mxCell>
        
        <!-- 步骤8 -->
        <mxCell id="step8" value="8. 状态更新&#xa;(State Update)" style="rounded=1;whiteSpace=wrap;html=1;fillColor=#dae8fc;strokeColor=#6c8ebf;fontSize=12;" vertex="1" parent="1">
          <mxGeometry x="1100" y="500" width="120" height="60" as="geometry" />
        </mxCell>
        
        <!-- 详细步骤箭头 -->
        <mxCell id="step-arrow1" value="" style="endArrow=classic;html=1;rounded=0;exitX=1;exitY=0.5;exitDx=0;exitDy=0;entryX=0;entryY=0.5;entryDx=0;entryDy=0;strokeWidth=2;" edge="1" parent="1" source="step1" target="step2">
          <mxGeometry width="50" height="50" relative="1" as="geometry">
            <mxPoint x="290" y="290" as="sourcePoint" />
            <mxPoint x="340" y="240" as="targetPoint" />
          </mxGeometry>
        </mxCell>
        
        <mxCell id="step-arrow2" value="" style="endArrow=classic;html=1;rounded=0;exitX=1;exitY=0.5;exitDx=0;exitDy=0;entryX=0;entryY=0.5;entryDx=0;entryDy=0;strokeWidth=2;" edge="1" parent="1" source="step2" target="step3">
          <mxGeometry width="50" height="50" relative="1" as="geometry">
            <mxPoint x="290" y="290" as="sourcePoint" />
            <mxPoint x="340" y="240" as="targetPoint" />
          </mxGeometry>
        </mxCell>
        
        <mxCell id="step-arrow3" value="" style="endArrow=classic;html=1;rounded=0;exitX=1;exitY=0.5;exitDx=0;exitDy=0;entryX=0;entryY=0.5;entryDx=0;entryDy=0;strokeWidth=2;" edge="1" parent="1" source="step3" target="step4">
          <mxGeometry width="50" height="50" relative="1" as="geometry">
            <mxPoint x="290" y="290" as="sourcePoint" />
            <mxPoint x="340" y="240" as="targetPoint" />
          </mxGeometry>
        </mxCell>
        
        <mxCell id="step-arrow4" value="" style="endArrow=classic;html=1;rounded=0;exitX=1;exitY=0.5;exitDx=0;exitDy=0;entryX=0;entryY=0.5;entryDx=0;entryDy=0;strokeWidth=2;" edge="1" parent="1" source="step4" target="step5">
          <mxGeometry width="50" height="50" relative="1" as="geometry">
            <mxPoint x="290" y="290" as="sourcePoint" />
            <mxPoint x="340" y="240" as="targetPoint" />
          </mxGeometry>
        </mxCell>
        
        <mxCell id="step-arrow5" value="" style="endArrow=classic;html=1;rounded=0;exitX=1;exitY=0.5;exitDx=0;exitDy=0;entryX=0;entryY=0.5;entryDx=0;entryDy=0;strokeWidth=2;" edge="1" parent="1" source="step5" target="step6">
          <mxGeometry width="50" height="50" relative="1" as="geometry">
            <mxPoint x="290" y="290" as="sourcePoint" />
            <mxPoint x="340" y="240" as="targetPoint" />
          </mxGeometry>
        </mxCell>
        
        <mxCell id="step-arrow6" value="" style="endArrow=classic;html=1;rounded=0;exitX=1;exitY=0.5;exitDx=0;exitDy=0;entryX=0;entryY=0.5;entryDx=0;entryDy=0;strokeWidth=2;" edge="1" parent="1" source="step6" target="step7">
          <mxGeometry width="50" height="50" relative="1" as="geometry">
            <mxPoint x="290" y="290" as="sourcePoint" />
            <mxPoint x="340" y="240" as="targetPoint" />
          </mxGeometry>
        </mxCell>
        
        <mxCell id="step-arrow7" value="" style="endArrow=classic;html=1;rounded=0;exitX=1;exitY=0.5;exitDx=0;exitDy=0;entryX=0;entryY=0.5;entryDx=0;entryDy=0;strokeWidth=2;" edge="1" parent="1" source="step7" target="step8">
          <mxGeometry width="50" height="50" relative="1" as="geometry">
            <mxPoint x="290" y="290" as="sourcePoint" />
            <mxPoint x="340" y="240" as="targetPoint" />
          </mxGeometry>
        </mxCell>
        
        <!-- 关键特性 -->
        <mxCell id="features-title" value="关键特性" style="text;html=1;strokeColor=none;fillColor=none;align=center;verticalAlign=middle;whiteSpace=wrap;rounded=0;fontSize=18;fontStyle=1;" vertex="1" parent="1">
          <mxGeometry x="50" y="600" width="200" height="30" as="geometry" />
        </mxCell>
        
        <mxCell id="feature1" value="自适应学习&#xa;(Adaptive Learning)" style="rounded=1;whiteSpace=wrap;html=1;fillColor=#d5e8d4;strokeColor=#82b366;fontSize=12;" vertex="1" parent="1">
          <mxGeometry x="50" y="650" width="120" height="50" as="geometry" />
        </mxCell>
        
        <mxCell id="feature2" value="上下文感知&#xa;(Context Aware)" style="rounded=1;whiteSpace=wrap;html=1;fillColor=#dae8fc;strokeColor=#6c8ebf;fontSize=12;" vertex="1" parent="1">
          <mxGeometry x="190" y="650" width="120" height="50" as="geometry" />
        </mxCell>
        
        <mxCell id="feature3" value="工具集成&#xa;(Tool Integration)" style="rounded=1;whiteSpace=wrap;html=1;fillColor=#fff2cc;strokeColor=#d6b656;fontSize=12;" vertex="1" parent="1">
          <mxGeometry x="330" y="650" width="120" height="50" as="geometry" />
        </mxCell>
        
        <mxCell id="feature4" value="错误恢复&#xa;(Error Recovery)" style="rounded=1;whiteSpace=wrap;html=1;fillColor=#f8cecc;strokeColor=#b85450;fontSize=12;" vertex="1" parent="1">
          <mxGeometry x="470" y="650" width="120" height="50" as="geometry" />
        </mxCell>
        
        <mxCell id="feature5" value="性能优化&#xa;(Performance)" style="rounded=1;whiteSpace=wrap;html=1;fillColor=#e1d5e7;strokeColor=#9673a6;fontSize=12;" vertex="1" parent="1">
          <mxGeometry x="610" y="650" width="120" height="50" as="geometry" />
        </mxCell>
        
        <mxCell id="feature6" value="安全控制&#xa;(Security)" style="rounded=1;whiteSpace=wrap;html=1;fillColor=#d5e8d4;strokeColor=#82b366;fontSize=12;" vertex="1" parent="1">
          <mxGeometry x="750" y="650" width="120" height="50" as="geometry" />
        </mxCell>
        
        <!-- 技术栈 -->
        <mxCell id="tech-stack-title" value="技术栈" style="text;html=1;strokeColor=none;fillColor=none;align=center;verticalAlign=middle;whiteSpace=wrap;rounded=0;fontSize=18;fontStyle=1;" vertex="1" parent="1">
          <mxGeometry x="50" y="750" width="200" height="30" as="geometry" />
        </mxCell>
        
        <mxCell id="tech1" value="GPT-4/Claude" style="rounded=1;whiteSpace=wrap;html=1;fillColor=#d5e8d4;strokeColor=#82b366;fontSize=12;" vertex="1" parent="1">
          <mxGeometry x="50" y="800" width="100" height="40" as="geometry" />
        </mxCell>
        
        <mxCell id="tech2" value="Vector DB" style="rounded=1;whiteSpace=wrap;html=1;fillColor=#dae8fc;strokeColor=#6c8ebf;fontSize=12;" vertex="1" parent="1">
          <mxGeometry x="170" y="800" width="100" height="40" as="geometry" />
        </mxCell>
        
        <mxCell id="tech3" value="Redis" style="rounded=1;whiteSpace=wrap;html=1;fillColor=#fff2cc;strokeColor=#d6b656;fontSize=12;" vertex="1" parent="1">
          <mxGeometry x="290" y="800" width="100" height="40" as="geometry" />
        </mxCell>
        
        <mxCell id="tech4" value="Docker" style="rounded=1;whiteSpace=wrap;html=1;fillColor=#f8cecc;strokeColor=#b85450;fontSize=12;" vertex="1" parent="1">
          <mxGeometry x="410" y="800" width="100" height="40" as="geometry" />
        </mxCell>
        
        <mxCell id="tech5" value="Kubernetes" style="rounded=1;whiteSpace=wrap;html=1;fillColor=#e1d5e7;strokeColor=#9673a6;fontSize=12;" vertex="1" parent="1">
          <mxGeometry x="530" y="800" width="100" height="40" as="geometry" />
        </mxCell>
        
        <mxCell id="tech6" value="Prometheus" style="rounded=1;whiteSpace=wrap;html=1;fillColor=#d5e8d4;strokeColor=#82b366;fontSize=12;" vertex="1" parent="1">
          <mxGeometry x="650" y="800" width="100" height="40" as="geometry" />
        </mxCell>
        
      </root>
    </mxGraphModel>
  </diagram>
</mxfile> 